<svg id="Layer_1" data-name="Layer 1" xmlns="http://www.w3.org/2000/svg" viewBox="0 0 575.34 536.03"><defs><style>.cls-1{fill:#fff;}</style></defs><title>Nichiha_Logo_NoTagline_NoDescriptor_White</title><rect class="cls-1" x="0.19" y="138.33" width="143.07" height="263.72"/><path class="cls-1" d="M407.07,364.41A308.8,308.8,0,0,1,411,401.47H569.53C569.2,179.79,387.54.18,163.49.18Q153.17.18,143,.69V138.42c132.71,3.42,241.44,90.1,264.1,226"/><rect class="cls-1" x="106.58" y="420.99" width="27.1" height="110.95"/><rect class="cls-1" x="337.32" y="420.99" width="27.11" height="110.95"/><polygon class="cls-1" points="295.62 420.99 295.62 463.05 261.27 463.05 261.27 420.99 234.17 420.99 234.17 531.94 261.27 531.94 261.27 489.89 295.62 489.89 295.62 531.94 322.73 531.94 322.73 420.99 295.62 420.99"/><polygon class="cls-1" points="440.55 420.99 440.55 463.05 406.21 463.05 406.21 420.99 379.1 420.99 379.1 531.94 406.21 531.94 406.21 489.89 440.55 489.89 440.55 531.94 467.66 531.94 467.66 420.99 440.55 420.99"/><polygon class="cls-1" points="65.09 420.99 65.09 483.29 27.82 421.19 27.82 420.99 0.7 420.99 0.7 531.94 27.82 531.94 27.82 469.7 65.09 531.81 65.09 531.94 92.2 531.94 92.2 420.99 65.09 420.99"/><path class="cls-1" d="M201.43,508c-16.36,0-29.62-13.88-29.62-31s13.26-31,29.62-31a28.64,28.64,0,0,1,18.76,7V420.84a59.2,59.2,0,1,0,0,111.65V500.92a28.72,28.72,0,0,1-18.76,7"/><path class="cls-1" d="M539.14,421l-27.7.24L474.67,531.86h29.71l5.29-16.44h31l6.8,16.44h27.7ZM517,490.51,525,464.83l8.06,25.68Z"/></svg>